<svg xmlns="http://www.w3.org/2000/svg"  viewBox="0 0 50 50" width="100px" height="100px"><path d="M 25 3 C 18.159056 3 14.77489 6.409028 13.259766 9.40625 C 11.738883 8.0949014 10.222609 6.531179 8.8320312 4.4453125 A 1.0001 1.0001 0 0 0 7.9824219 4 A 1.0001 1.0001 0 0 0 7.0058594 5.0996094 C 7.0058594 5.0996094 8.00696 15.132456 10.019531 25.195312 A 1.0001 1.0001 0 0 0 10.105469 25.447266 C 10.688887 26.614101 11.348709 27.680354 12 28.632812 L 12 33.638672 C 12 34.791148 12.497739 35.888879 13.365234 36.648438 L 13.365234 36.650391 L 14 37.205078 L 14 39.238281 C 14 39.943344 13.621381 40.589688 12.994141 40.972656 C 9.4016313 43.166285 6.2929687 46.292969 6.2929688 46.292969 A 1.0001 1.0001 0 0 0 7 48 L 43 48 A 1.0001 1.0001 0 0 0 43.707031 46.292969 C 43.707031 46.292969 40.598368 43.166285 37.005859 40.972656 C 36.378163 40.589409 36 39.944682 36 39.238281 L 36 37.205078 L 36.634766 36.650391 L 36.634766 36.648438 C 37.502261 35.888926 38 34.791148 38 33.638672 L 38 28.632812 C 38.65134 27.6803 39.311068 26.614192 39.894531 25.447266 A 1.0001 1.0001 0 0 0 39.980469 25.195312 C 41.993038 15.132456 42.994141 5.0996094 42.994141 5.0996094 A 1.0001 1.0001 0 0 0 41.167969 4.4453125 C 39.778013 6.5302467 38.262386 8.0933006 36.742188 9.4042969 C 35.220495 6.4088205 31.83601 3 25 3 z M 25 5 C 26.117611 5 27.105019 5.0984965 28 5.2617188 L 28 9 L 22 9 L 22 5.2617188 C 22.894505 5.0985961 23.882518 5 25 5 z M 20 5.796875 L 20 14.654297 C 18.479153 13.296876 16.703443 12.12141 14.857422 10.705078 C 15.628457 8.9146534 17.041992 6.8889689 20 5.796875 z M 30 5.7988281 C 32.959467 6.8909593 34.37815 8.9131295 35.144531 10.703125 C 33.297758 12.120202 31.521433 13.296353 30 14.654297 L 30 5.7988281 z M 9.4003906 8.2832031 C 13.05785 12.406254 17.001932 14.415994 19.292969 16.707031 C 21.263506 18.677568 22.481219 20.142276 23.199219 21.099609 C 23.917219 22.056943 24.105469 22.447266 24.105469 22.447266 A 1.0001 1.0001 0 0 0 25.894531 22.447266 C 25.894531 22.447266 26.082781 22.056943 26.800781 21.099609 C 27.518781 20.142276 28.736494 18.677568 30.707031 16.707031 C 32.998068 14.415994 36.94215 12.406254 40.599609 8.2832031 C 40.208215 11.662831 39.472328 17.465695 38.044922 24.644531 C 36.4386 27.811505 34.507975 29.956503 33.826172 30.681641 L 25.554688 25.167969 A 1.0001 1.0001 0 0 0 24.445312 25.167969 L 16.173828 30.681641 C 15.492025 29.956503 13.5614 27.811505 11.955078 24.644531 C 10.527672 17.465695 9.7917846 11.662831 9.4003906 8.2832031 z M 22 11 L 28 11 L 28 16.626953 C 26.700686 18.006517 25.798869 19.100857 25.199219 19.900391 C 25.056843 20.090225 25.112189 20.041085 25 20.201172 C 24.887807 20.041085 24.94316 20.090225 24.800781 19.900391 C 24.201131 19.100857 23.299314 18.006517 22 16.626953 L 22 11 z M 15 21.015625 C 15 21.015625 14.998031 23 17.332031 24 C 19.666031 25 22 24.984375 22 24.984375 C 22 24.984375 22.000969 23 19.667969 22 C 17.333969 21 15 21.015625 15 21.015625 z M 35 21.015625 C 35 21.015625 32.665031 21 30.332031 22 C 27.999031 23 28 24.984375 28 24.984375 C 28 24.984375 30.334969 25 32.667969 24 C 35.000969 23 35 21.015625 35 21.015625 z M 25 27.201172 L 33.445312 32.832031 A 1.0001 1.0001 0 0 0 34.707031 32.707031 C 34.707031 32.707031 35.271878 32.110359 36 31.251953 L 36 33.638672 C 36 34.216196 35.750911 34.764089 35.316406 35.144531 L 29.191406 40.505859 C 28.826248 40.824956 28.357956 41 27.873047 41 L 22.126953 41 C 21.643377 41 21.175236 40.823715 20.808594 40.503906 L 20.808594 40.505859 L 14.683594 35.144531 C 14.249089 34.764042 14 34.216196 14 33.638672 L 14 31.251953 C 14.728122 32.110359 15.292969 32.707031 15.292969 32.707031 A 1.0001 1.0001 0 0 0 16.554688 32.832031 L 25 27.201172 z M 25 33 C 22.322222 33 20.470703 34.152344 20.470703 34.152344 A 1.0001 1.0001 0 1 0 21.529297 35.847656 C 21.529297 35.847656 22.877778 35 25 35 C 27.122222 35 28.470703 35.847656 28.470703 35.847656 A 1.0001 1.0001 0 1 0 29.529297 34.152344 C 29.529297 34.152344 27.677778 33 25 33 z M 16 38.955078 L 19.492188 42.011719 L 19.494141 42.011719 C 20.223452 42.647863 21.158529 43 22.126953 43 L 27.873047 43 C 28.842138 43 29.778971 42.648623 30.507812 42.011719 L 34 38.955078 L 34 39.238281 C 34 40.663881 34.772587 41.952935 35.962891 42.679688 C 37.661213 43.716703 39.242039 44.98263 40.419922 46 L 9.5800781 46 C 10.757961 44.98263 12.338787 43.716703 14.037109 42.679688 C 15.227869 41.952655 16 40.663219 16 39.238281 L 16 38.955078 z"/></svg>