<?xml version="1.0" encoding="UTF-8"?>
<!-- Generated by Pixelmator Pro 4.2 -->
<svg width="800" height="800" viewBox="0 0 800 800" xmlns="http://www.w3.org/2000/svg">
    <g id="Groupe">
        <path id="Cercle" fill="#ffffff" fill-rule="evenodd" stroke="none" d="M 608.423157 214.796875 C 608.423157 201.972778 598.027222 191.576843 585.203125 191.576843 C 572.379089 191.576843 561.983154 201.972778 561.983154 214.796875 C 561.983154 227.620911 572.379089 238.016846 585.203125 238.016846 C 598.027222 238.016846 608.423157 227.620911 608.423157 214.796875 Z"/>
        <path id="Trac" fill="#000000" stroke="none" d="M 589.834534 193.022522 L 582.406006 193.022522 L 579.834595 202.736877 L 571.945435 197.584839 C 569.96051 199.128296 568.250549 201.008606 566.901611 203.140076 L 585.263123 214.736877 L 603.624634 203.140076 C 602.275574 201.008606 600.565796 199.128296 598.580872 197.584839 L 590.691711 202.736877 L 587.548828 195.939941 L 591.293091 196.255737 L 589.834534 193.022522 Z M 569.006287 206.755066 L 565.94104 204.819153 C 564.411926 207.791992 563.548828 211.163635 563.548828 214.736877 L 563.648621 216.831543 L 569.006287 206.755066 Z M 570.944275 207.979065 L 564.309998 220.456299 C 564.751648 222.07782 565.376404 223.623779 566.160645 225.07074 L 574.166443 210.01416 L 570.944275 207.979065 Z M 576.10437 211.238159 L 567.558105 227.31134 C 568.43573 228.544922 569.439209 229.6828 570.5495 230.706299 L 579.695129 213.506042 L 576.10437 211.238159 Z M 581.633057 214.729919 L 572.347351 232.19397 C 575.95697 234.86908 580.425232 236.451172 585.263123 236.451172 C 590.101013 236.451172 594.569336 234.86908 598.178955 232.19397 L 588.893188 214.729919 L 585.263123 217.022522 L 581.633057 214.729919 Z M 590.831177 213.506042 L 599.976685 230.706299 C 601.087097 229.6828 602.090454 228.544922 602.968201 227.31134 L 594.421936 211.238159 L 590.831177 213.506042 Z M 596.359863 210.01416 L 604.365479 225.07074 C 605.149902 223.623779 605.774658 222.07782 606.216248 220.456299 L 599.582031 207.979065 L 596.359863 210.01416 Z M 601.519958 206.755066 L 606.877686 216.831543 L 606.977356 214.736877 C 606.977356 211.163635 606.114319 207.791992 604.585266 204.819153 L 601.519958 206.755066 Z M 585.263123 189.473694 C 599.215576 189.473694 610.526306 200.784424 610.526306 214.736877 C 610.526306 228.689331 599.215576 240 585.263123 240 C 571.310669 240 560 228.689331 560 214.736877 C 560 200.784424 571.310669 189.473694 585.263123 189.473694 Z"/>
    </g>
</svg>
